<svg width="19" height="14" viewBox="0 0 19 14" fill="none" xmlns="http://www.w3.org/2000/svg">
<path d="M2.71478 6.04067C2.47245 5.79375 2.14322 5.65448 1.79954 5.6535C1.45585 5.65251 1.12586 5.78989 0.882148 6.03542C0.638438 6.28094 0.500977 6.6145 0.500005 6.96271C0.499033 7.31091 0.63463 7.64525 0.876966 7.89217L6.12097 13.2332C6.24133 13.3557 6.3844 13.4529 6.54194 13.5192C6.69948 13.5855 6.86841 13.6196 7.03901 13.6196C7.20961 13.6196 7.37854 13.5855 7.53608 13.5192C7.69363 13.4529 7.83669 13.3557 7.95706 13.2332L18.2602 2.74017C18.3803 2.61791 18.4755 2.47288 18.5403 2.31335C18.6051 2.15383 18.6382 1.98295 18.6378 1.81045C18.6374 1.63795 18.6035 1.46723 18.538 1.30802C18.4724 1.1488 18.3766 1.00423 18.2559 0.882543C18.1352 0.760857 17.9921 0.664443 17.8347 0.598807C17.6772 0.533171 17.5085 0.499597 17.3383 0.500004C17.168 0.50041 16.9995 0.534788 16.8424 0.601175C16.6852 0.667562 16.5425 0.764657 16.4224 0.886918L7.03987 10.4472L2.71478 6.04067Z" fill="white"/>
</svg>
