<?xml version="1.0" encoding="utf-8"?><svg viewBox="0 0 19 19" xmlns="http://www.w3.org/2000/svg" xmlns:xlink="http://www.w3.org/1999/xlink"><style>:root>svg{display:none}:root>svg:target{display:block}</style><svg fill="none" viewBox="0 0 10 16" id="arrow-left" xmlns="http://www.w3.org/2000/svg"><path d="M3.068 8.2l6.326 5.916L7.95 15.45.2 8.2 8.031.876l1.443 1.334L3.068 8.2z" fill="#210E4A"/></svg><svg fill="none" viewBox="0 0 19 14" id="checkbox" xmlns="http://www.w3.org/2000/svg"><path d="M2.715 6.04a1.287 1.287 0 00-1.833-.005 1.322 1.322 0 00-.005 1.857l5.244 5.341a1.294 1.294 0 00.918.387 1.281 1.281 0 00.918-.387L18.26 2.74a1.315 1.315 0 00.378-.93 1.329 1.329 0 00-.382-.927A1.296 1.296 0 0017.338.5a1.282 1.282 0 00-.916.387l-9.382 9.56-4.325-4.406z" fill="#fff"/></svg><svg fill="none" viewBox="0 0 19 19" id="circle-checkbox" xmlns="http://www.w3.org/2000/svg"><rect x="1.267" y="1.267" width="16.467" height="16.467" rx="8.233" fill="#fff"/><rect x="1.267" y="1.267" width="16.467" height="16.467" rx="8.233" stroke="#99ABC1" stroke-width="2.533"/><rect x="1.267" y="1.267" width="16.467" height="16.467" rx="8.233" stroke="#0047BA" stroke-width="2.533"/><rect x="5.7" y="5.7" width="7.6" height="7.6" rx="3.8" fill="#fff"/><rect x="5.7" y="5.7" width="7.6" height="7.6" rx="3.8" fill="#0047BA"/></svg><svg fill="none" viewBox="0 0 11 7" id="dropdown" xmlns="http://www.w3.org/2000/svg"><path d="M5.529 4.836L9.993.062 11 1.15 5.529 7 0 1.09 1.006 0 5.53 4.836z" fill="#0047BA"/></svg><svg fill="none" viewBox="0 0 11 7" id="dropdown-select" xmlns="http://www.w3.org/2000/svg"><path d="M5.529 4.836L9.993.062 11 1.15 5.529 7 0 1.09 1.006 0 5.53 4.836z" fill="#2D2D2D"/></svg></svg>